<svg viewBox="0 0 986 300" xmlns="http://www.w3.org/2000/svg" role="img" aria-label="Pipeline: field photo to graded kernel">

<style>
  .cap { font-family:'Segoe Print','Bradley Hand','Comic Sans MS',cursive; }
  .lbl { font-family:'Consolas','Segoe UI',monospace; letter-spacing:.03em; }
</style>

<rect x="0" y="0" width="986" height="300" fill="#FBF6E9"/>
<rect x="3" y="3" width="980" height="294" fill="none" stroke="#2B2620" stroke-width="1" opacity="0.15" rx="10"/>
<path d="M 40.8,94.0 Q 95.9,92.1 160.2,90.7 Q 174.6,91.8 173.8,108.0 Q 170.3,150.8 171.9,191.0 Q 173.6,209.8 157.5,206.3 Q 96.6,211.5 41.5,208.7 Q 25.3,208.8 26.0,192.7 Q 26.8,148.6 28.0,108.0 Q 24.7,94.0 42.3,93.0 Z" fill="#DCE9DD" stroke="#2B2620" stroke-width="2.3" stroke-linejoin="round" stroke-linecap="round"/><path d="M 40.4,93.4 Q 101.3,90.0 156.2,90.7 Q 172.7,93.6 172.6,106.6 Q 174.8,151.7 176.1,191.5 Q 174.6,208.8 158.6,206.0 Q 101.1,209.2 43.0,210.2 Q 27.9,206.7 27.1,192.0 Q 28.9,154.6 27.7,106.3 Q 25.6,94.0 40.8,91.7 Z" fill="none" stroke="#2B2620" stroke-width="1.3" stroke-linejoin="round" stroke-linecap="round" opacity="0.45"/>
<path d="M 82.8,113.0 Q 95.9,111.1 118.2,109.7 Q 122.6,110.8 121.8,117.0 Q 118.3,126.8 119.9,134.0 Q 121.6,142.8 115.5,139.3 Q 96.6,144.5 83.5,141.7 Q 77.3,141.8 78.0,135.7 Q 78.8,124.6 80.0,117.0 Q 76.7,113.0 84.3,112.0 Z" fill="#FBF6E9" stroke="#2B2620" stroke-width="2.3" stroke-linejoin="round" stroke-linecap="round"/><path d="M 82.4,112.4 Q 101.3,109.0 114.2,109.7 Q 120.7,112.6 120.6,115.6 Q 122.8,127.7 124.1,134.5 Q 122.6,141.8 116.6,139.0 Q 101.1,142.2 85.0,143.2 Q 79.9,139.7 79.1,135.0 Q 80.9,130.6 79.7,115.3 Q 77.6,113.0 82.8,110.7 Z" fill="none" stroke="#2B2620" stroke-width="1.3" stroke-linejoin="round" stroke-linecap="round" opacity="0.45"/><path d="M 91.42972439226752,111.22764724482964 L 92.91916626552471,106.28280705044904 L 108.27712622376863,106.54978797552374 L 108.63963793869212,111.13724582511996" fill="#FBF6E9" stroke="#2B2620" stroke-width="1.6" stroke-linejoin="round"/><circle cx="100.56770021950015" cy="128.35148376141964" r="9" fill="#F3EAD2" stroke="#2B2620" stroke-width="1.8"/><circle cx="101.25455793603892" cy="127.60261381717376" r="4" fill="#2B2620" opacity="0.75"/><circle cx="115.0" cy="117" r="2" fill="#C68A1B" stroke="#2B2620" stroke-width="1"/>
<text x="100.0" y="162" font-family="'Segoe Print','Bradley Hand','Comic Sans MS',cursive" font-size="13.5" font-weight="normal" fill="#2B2620" text-anchor="middle" style="">Field photo</text>
<text x="100.0" y="181" font-family="'Segoe Print','Bradley Hand','Comic Sans MS',cursive" font-size="13.5" font-weight="normal" fill="#2B2620" text-anchor="middle" style="">(dense scene or</text>
<text x="100.0" y="200" font-family="'Segoe Print','Bradley Hand','Comic Sans MS',cursive" font-size="13.5" font-weight="normal" fill="#2B2620" text-anchor="middle" style="">single kernel)</text>
<path d="M 237.8,91.4 Q 301.7,94.2 375.8,90.2 Q 390.2,92.5 388.0,107.5 Q 392.2,148.2 388.8,190.3 Q 390.0,209.9 374.4,209.2 Q 303.5,208.6 238.8,209.0 Q 221.7,206.2 221.0,190.7 Q 219.4,153.6 223.7,106.0 Q 221.5,92.0 235.9,91.7 Z" fill="#F3DFA9" stroke="#2B2620" stroke-width="2.3" stroke-linejoin="round" stroke-linecap="round"/><path d="M 237.0,91.8 Q 306.3,91.6 374.3,92.1 Q 391.3,91.8 389.0,109.5 Q 389.7,152.5 390.1,190.1 Q 388.6,209.2 375.0,208.5 Q 306.0,211.0 238.7,207.8 Q 221.7,206.5 220.0,194.1 Q 221.3,151.5 223.8,108.8 Q 223.2,92.1 238.7,93.3 Z" fill="none" stroke="#2B2620" stroke-width="1.3" stroke-linejoin="round" stroke-linecap="round" opacity="0.45"/>
<circle cx="297.4163902204819" cy="120.22818981895529" r="12" fill="#DCE9DD" stroke="#2B2620" stroke-width="2"/><path d="M 305.6261791962181,130.5847833851844 L 316.2179439127788,142.599943358315" stroke="#2B2620" stroke-width="3.5" stroke-linecap="round"/>
<text x="306.0" y="160" font-family="'Segoe Print','Bradley Hand','Comic Sans MS',cursive" font-size="13.5" font-weight="normal" fill="#2B2620" text-anchor="middle" style="">YOLO detector:</text>
<text x="306.0" y="179" font-family="'Segoe Print','Bradley Hand','Comic Sans MS',cursive" font-size="13.5" font-weight="normal" fill="#2B2620" text-anchor="middle" style="">find + crop</text>
<text x="306.0" y="198" font-family="'Segoe Print','Bradley Hand','Comic Sans MS',cursive" font-size="13.5" font-weight="normal" fill="#2B2620" text-anchor="middle" style="">each kernel</text>
<path d="M 454.3,77.7 Q 534.8,77.7 612.7,76.5 Q 628.1,77.2 626.9,96.0 Q 632.6,147.7 627.5,205.0 Q 628.8,221.8 612.8,222.7 Q 532.9,225.7 454.5,220.0 Q 435.8,220.4 439.9,205.1 Q 436.4,152.6 437.7,92.1 Q 438.4,79.5 452.5,76.8 Z" fill="#F3EAD2" stroke="#2B2620" stroke-width="2.3" stroke-linejoin="round" stroke-linecap="round"/><path d="M 455.9,77.5 Q 534.9,75.5 612.2,76.1 Q 627.6,77.2 626.0,95.4 Q 631.1,148.0 627.7,206.4 Q 628.7,221.0 611.4,222.0 Q 537.2,224.4 455.8,224.1 Q 439.7,220.7 437.6,204.8 Q 437.7,151.4 436.5,92.4 Q 439.4,80.0 455.7,75.8 Z" fill="none" stroke="#2B2620" stroke-width="1.3" stroke-linejoin="round" stroke-linecap="round" opacity="0.45"/>
<path d="M 545.2,111.6 L 539.1,116.5 L 538.0,123.2 L 531.1,120.6 L 521.4,118.5 L 524.6,113.0 L 522.3,104.9 L 531.2,105.1 L 537.4,99.3 L 540.5,107.2 Z" fill="#F3EAD2" stroke="#2B2620" stroke-width="1.8" stroke-linejoin="round"/><circle cx="533.0" cy="112" r="4.5" fill="#FBF6E9" stroke="#2B2620" stroke-width="1.6"/>
<text x="533.0" y="144" font-family="'Segoe Print','Bradley Hand','Comic Sans MS',cursive" font-size="13" font-weight="normal" fill="#2B2620" text-anchor="middle" style="">Shared trunk</text>
<text x="533.0" y="163" font-family="'Segoe Print','Bradley Hand','Comic Sans MS',cursive" font-size="13" font-weight="normal" fill="#2B2620" text-anchor="middle" style="">EfficientNet-B0</text>
<text x="533.0" y="182" font-family="'Segoe Print','Bradley Hand','Comic Sans MS',cursive" font-size="13" font-weight="normal" fill="#2B2620" text-anchor="middle" style="">+ SE / CBAM attention</text>
<text x="533.0" y="242" font-family="'Consolas','Segoe UI',monospace" font-size="11.5" font-weight="normal" fill="#1B4332" text-anchor="middle" style="">(pretrained with SimCLR contrastive learning)</text>
<path d="M 687.8,78.3 Q 753.6,78.2 812.6,78.1 Q 826.6,79.3 824.2,89.1 Q 824.4,108.8 828.1,130.0 Q 826.7,140.5 812.5,137.9 Q 749.8,136.2 685.9,139.8 Q 675.7,141.5 676.1,128.6 Q 675.8,109.0 678.2,92.2 Q 677.5,78.9 687.2,76.8 Z" fill="#DCE9DD" stroke="#2B2620" stroke-width="2.3" stroke-linejoin="round" stroke-linecap="round"/><path d="M 689.4,76.7 Q 753.2,78.5 812.5,76.7 Q 825.7,76.8 826.7,89.6 Q 824.1,108.6 827.8,127.3 Q 827.3,139.2 815.1,138.9 Q 753.0,140.6 686.3,138.2 Q 675.8,138.7 674.8,130.0 Q 676.5,106.7 678.0,91.7 Q 676.8,79.1 687.9,78.0 Z" fill="none" stroke="#2B2620" stroke-width="1.3" stroke-linejoin="round" stroke-linecap="round" opacity="0.45"/>
<text x="751.0" y="105" font-family="'Segoe Print','Bradley Hand','Comic Sans MS',cursive" font-size="13" font-weight="normal" fill="#2B2620" text-anchor="middle" style="">Variety head</text>
<text x="751.0" y="124" font-family="'Segoe Print','Bradley Hand','Comic Sans MS',cursive" font-size="13" font-weight="normal" fill="#2B2620" text-anchor="middle" style="">6-way</text>
<path d="M 687.9,152.7 Q 749.8,149.3 813.0,153.4 Q 826.8,152.4 826.3,164.7 Q 822.4,184.4 824.1,203.4 Q 824.1,214.8 813.3,213.6 Q 751.1,212.9 688.0,212.2 Q 678.1,216.0 674.3,201.7 Q 674.3,180.4 676.9,162.0 Q 674.6,153.4 687.6,151.6 Z" fill="#F3DFA9" stroke="#2B2620" stroke-width="2.3" stroke-linejoin="round" stroke-linecap="round"/><path d="M 687.9,152.7 Q 753.5,154.3 812.5,150.8 Q 825.8,151.5 828.0,165.0 Q 824.6,182.6 827.9,200.5 Q 825.8,213.3 814.5,212.9 Q 747.5,215.7 689.8,214.4 Q 677.8,215.3 674.1,200.9 Q 674.8,184.3 676.7,163.7 Q 676.1,150.6 688.2,150.4 Z" fill="none" stroke="#2B2620" stroke-width="1.3" stroke-linejoin="round" stroke-linecap="round" opacity="0.45"/>
<text x="751.0" y="179" font-family="'Segoe Print','Bradley Hand','Comic Sans MS',cursive" font-size="13" font-weight="normal" fill="#2B2620" text-anchor="middle" style="">Quality head</text>
<text x="751.0" y="198" font-family="'Segoe Print','Bradley Hand','Comic Sans MS',cursive" font-size="13" font-weight="normal" fill="#2B2620" text-anchor="middle" style="">Good / Bad</text>
<path d="M 886.9,78.8 Q 919.7,78.9 950.4,76.8 Q 969.0,76.4 968.1,92.7 Q 968.3,150.1 965.9,205.0 Q 966.4,223.6 953.4,223.3 Q 923.9,224.8 886.9,223.5 Q 871.9,223.1 872.3,205.7 Q 870.4,147.9 873.4,95.3 Q 874.1,78.8 888.2,79.1 Z" fill="#F0DCD2" stroke="#2B2620" stroke-width="2.3" stroke-linejoin="round" stroke-linecap="round"/><path d="M 885.9,79.6 Q 921.6,74.0 953.7,79.6 Q 967.1,78.4 968.0,93.0 Q 967.5,151.4 969.0,204.0 Q 967.4,224.1 953.1,222.5 Q 919.4,222.7 887.0,220.6 Q 872.8,220.0 870.6,206.9 Q 875.9,150.3 870.5,95.8 Q 870.5,77.9 886.2,76.2 Z" fill="none" stroke="#2B2620" stroke-width="1.3" stroke-linejoin="round" stroke-linecap="round" opacity="0.45"/>
<text x="920.0" y="122" font-family="'Segoe Print','Bradley Hand','Comic Sans MS',cursive" font-size="12" font-weight="normal" fill="#2B2620" text-anchor="middle" style="">Distance</text>
<text x="920.0" y="138" font-family="'Segoe Print','Bradley Hand','Comic Sans MS',cursive" font-size="12" font-weight="normal" fill="#2B2620" text-anchor="middle" style="">gate:</text>
<text x="920.0" y="154" font-family="'Segoe Print','Bradley Hand','Comic Sans MS',cursive" font-size="12" font-weight="normal" fill="#2B2620" text-anchor="middle" style="">verified</text>
<text x="920.0" y="170" font-family="'Segoe Print','Bradley Hand','Comic Sans MS',cursive" font-size="12" font-weight="normal" fill="#2B2620" text-anchor="middle" style="">or</text>
<text x="920.0" y="186" font-family="'Segoe Print','Bradley Hand','Comic Sans MS',cursive" font-size="12" font-weight="normal" fill="#2B2620" text-anchor="middle" style="">unverified?</text>
<path d="M 174.0,150.0 Q 195.9,132.0 222.0,150.0" fill="none" stroke="#2B2620" stroke-width="2.2" stroke-linecap="round"/><path d="M 211.4,147.2 L 222.0,150.0 L 215.6,141.0" fill="none" stroke="#2B2620" stroke-width="2.2" stroke-linecap="round" stroke-linejoin="round"/>
<path d="M 390.0,150.0 Q 417.8,164.4 438.0,150.0" fill="none" stroke="#2B2620" stroke-width="2.2" stroke-linecap="round"/><path d="M 431.8,159.1 L 438.0,150.0 L 427.4,152.9" fill="none" stroke="#2B2620" stroke-width="2.2" stroke-linecap="round" stroke-linejoin="round"/>
<path d="M 628.0,118.0 Q 652.9,98.6 676.0,109.0" fill="none" stroke="#2B2620" stroke-width="2.2" stroke-linecap="round"/><path d="M 665.0,108.2 L 676.0,109.0 L 668.1,101.3" fill="none" stroke="#2B2620" stroke-width="2.2" stroke-linecap="round" stroke-linejoin="round"/>
<path d="M 628.0,182.0 Q 655.3,197.6 676.0,183.0" fill="none" stroke="#2B2620" stroke-width="2.2" stroke-linecap="round"/><path d="M 669.7,192.0 L 676.0,183.0 L 665.4,185.9" fill="none" stroke="#2B2620" stroke-width="2.2" stroke-linecap="round" stroke-linejoin="round"/>
<path d="M 826.0,183.0 Q 845.7,152.1 872.0,150.0" fill="none" stroke="#2B2620" stroke-width="2.2" stroke-linecap="round"/><path d="M 862.0,154.6 L 872.0,150.0 L 861.4,147.1" fill="none" stroke="#2B2620" stroke-width="2.2" stroke-linecap="round" stroke-linejoin="round"/>
<text x="26" y="26" font-family="'Consolas','Segoe UI',monospace" font-size="12.5" font-weight="normal" fill="#2B2620" text-anchor="start" style="">each step below runs once per detected kernel</text>
<path d="M 908.0,222.0 Q 908.6,234.6 908.0,240.0" fill="none" stroke="#2B2620" stroke-width="2.2" stroke-linecap="round"/><path d="M 905.5,229.3 L 908.0,240.0 L 913.0,230.2" fill="none" stroke="#2B2620" stroke-width="2.2" stroke-linecap="round" stroke-linejoin="round"/>
<path d="M 932.0,222.0 Q 929.8,240.5 932.0,240.0" fill="none" stroke="#2B2620" stroke-width="2.2" stroke-linecap="round"/><path d="M 922.7,245.8 L 932.0,240.0 L 921.1,238.4" fill="none" stroke="#2B2620" stroke-width="2.2" stroke-linecap="round" stroke-linejoin="round"/>
<path d="M 879.9612718792398,249.90013772695622 L 885.5264345625017,259.94324202017765 L 895.7915427352146,241.84652801511365" fill="none" stroke="#1B4332" stroke-width="3" stroke-linecap="round" stroke-linejoin="round"/>
<text x="902.0" y="257" font-family="'Consolas','Segoe UI',monospace" font-size="12.5" font-weight="normal" fill="#1B4332" text-anchor="start" style="">graded</text>
<text x="886.0" y="280" font-family="'Segoe Print','Bradley Hand','Comic Sans MS',cursive" font-size="20" font-weight="bold" fill="#A6462A" text-anchor="middle" style="">?</text>
<text x="902.0" y="279" font-family="'Consolas','Segoe UI',monospace" font-size="12.5" font-weight="normal" fill="#A6462A" text-anchor="start" style="">unverified</text>
</svg>